<svg width="52" height="52" viewBox="0 0 52 52" fill="none" xmlns="http://www.w3.org/2000/svg">
<path d="M22 25.5H32.5V26.5H22H21.5V27V27.7929L19.7071 26L21.5 24.2071V25V25.5H22Z" fill="#292929"/>
<path d="M22 25.5H32.5V26.5H22H21.5V27V27.7929L19.7071 26L21.5 24.2071V25V25.5H22Z" stroke="black"/>
<path d="M22 25.5H32.5V26.5H22H21.5V27V27.7929L19.7071 26L21.5 24.2071V25V25.5H22Z" stroke="black" stroke-opacity="0.2"/>
<path d="M26 50C12.7452 50 2 39.2548 2 26H-2C-2 41.464 10.536 54 26 54V50ZM50 26C50 39.2548 39.2548 50 26 50V54C41.464 54 54 41.464 54 26H50ZM26 2C39.2548 2 50 12.7452 50 26H54C54 10.536 41.464 -2 26 -2V2ZM26 -2C10.536 -2 -2 10.536 -2 26H2C2 12.7452 12.7452 2 26 2V-2Z" fill="#F1CDB3"/>
</svg>
